# xmcd
#
# Track frame offsets:
#	150
#	9800
#	20235
#	34371
#	47267
#	60827
#	74377
#	89591
#	106096
#	122148
#	135160
#	150809
#	165603
#	179692
#	193397
#	206140
#	221275
#	233138
#	249862
#	265060
#	279913
#	293263
#	305279
#	321803
#	338725
#
# Disc length: 4689 seconds
#
# Revision: 1
# Processed by: cddbd v1.5.1PL0 Copyright (c) Steve Scherf et al.
# Submitted via: EasyCDDAExtractor 7.0.6.1
#
DISCID=4c124f19
DTITLE=George Strait - Strait out of The Box Disc 2
DYEAR=1995
DGENRE=Country
TTITLE0=Right or Wrong
TTITLE1=Rhythm of The Road
TTITLE2=Am I Blue
TTITLE3=Nobody In His Right Mind Would've Left Her
TTITLE4=She'll Leave You With A Smile
TTITLE5=A Fire I Can't Put Out
TTITLE6=All My Ex's Live In Texas
TTITLE7=Famous Last Words Of A Fool
TTITLE8=I Cross My Heart
TTITLE9=It Ain't Cool To Be Crazy About You
TTITLE10=Lead On
TTITLE11=Lefy's Gone
TTITLE12=Ocean Front Property
TTITLE13=Six Pack To Go
TTITLE14=The Chair
TTITLE15=The Cowboy Rides Away
TTITLE16=The Fireman
TTITLE17=Write This Down
TTITLE18=You're Something Special To Me
TTITLE19=Does Fort Worth Ever Cross Your Mind
TTITLE20=Haven't You Heard
TTITLE21=In To Deep
TTITLE22=Liveing And Liveing Well
TTITLE23=Stars On The Water
TTITLE24=Let's Fall To Pieces Together
EXTD=
EXTT0=
EXTT1=
EXTT2=
EXTT3=
EXTT4=
EXTT5=
EXTT6=
EXTT7=
EXTT8=
EXTT9=
EXTT10=
EXTT11=
EXTT12=
EXTT13=
EXTT14=
EXTT15=
EXTT16=
EXTT17=
EXTT18=
EXTT19=
EXTT20=
EXTT21=
EXTT22=
EXTT23=
EXTT24=
PLAYORDER=
